# xmcd
#
# Track frame offsets: 
#        150
#        10480
#        22005
#        33326
#        45186
#        55043
#        66899
#        79573
#        94123
#        105706
#        115546
#        130365
#        142095
#        152328
#        162667
#        175436
#        187116
#        198709
#        211090
#        222428
#        238734
#        253908
#        274377
#        288877
#        307847
#        324459
#        336465
#
# Disc length: 4672 seconds
#
# Revision: 0
# Processed by: cddbd v1.5.1PL2 Copyright (c) Steve Scherf et al.
# Submitted via: ExactAudioCopy v0.95a5
#
DISCID=91123e1b
DTITLE=Various Artist - The Very Best of Aaron and Art Neville
DYEAR=2004
DGENRE=Soul
TTITLE0=Aaron Neville-Over You
TTITLE1=Aaron Neville-Every Day
TTITLE2=Aaron Neville-Show Me The Way
TTITLE3=Aaron Neville-Even Though(Reality)
TTITLE4=Aaron Neville-Get Out of My Life
TTITLE5=Aaron Neville-Let´s Live
TTITLE6=Aaron Neville-Wrong Number (I´m Sorry , Goodbye)
TTITLE7=Aaron Neville-How Could I Hel But Love You
TTITLE8=Aaron NevilleSweet Little Mama
TTITLE9=Aaron Neville-Hey,Little Alice
TTITLE10=Art Neville-All These Things
TTITLE11=Aaron Neville-Humdinger
TTITLE12=Art Neville-You Won´t Do Right
TTITLE13=Aaron Neville-For Every Day There´s A Girl
TTITLE14=Art Neville-That Rock´N´Roll Beat
TTITLE15=Art Neville- Hook, Line And Sinker
TTITLE16=Art Neville-House on the Hill (Rock´N´Roll Hootenany)
TTITLE17=Art Neville-Darling, Don´t Leave Me This Way
TTITLE18=Art&The Meters-Bo Diddley
TTITLE19=Art& The Meters-Heartaches
TTITLE20=Art&The Meters-I´m Gonna Put Some Hurt On You
TTITLE21=Aaron Neville-Mojo  Hannah
TTITLE22=Aaron Neville-Baby, I´m A Want You
TTITLE23=Aaron Neville-Hercules
TTITLE24=Aaron Neville-Been So Wrong
TTITLE25=Art Neville-Little Girl From The Candy Store
TTITLE26=Aaron Neville-Tell It Like It Is (76 versio0n)
EXTD=
EXTT0=
EXTT1=
EXTT2=
EXTT3=
EXTT4=
EXTT5=
EXTT6=
EXTT7=
EXTT8=
EXTT9=
EXTT10=
EXTT11=
EXTT12=
EXTT13=
EXTT14=
EXTT15=
EXTT16=
EXTT17=
EXTT18=
EXTT19=
EXTT20=
EXTT21=
EXTT22=
EXTT23=
EXTT24=
EXTT25=
EXTT26=
PLAYORDER=
